<?xml version="1.0" encoding="UTF-8" standalone="no"?>
<svg
   xmlns:dc="http://purl.org/dc/elements/1.1/"
   xmlns:cc="http://creativecommons.org/ns#"
   xmlns:rdf="http://www.w3.org/1999/02/22-rdf-syntax-ns#"
   xmlns:svg="http://www.w3.org/2000/svg"
   xmlns="http://www.w3.org/2000/svg"
   viewBox="0 0 1037.5 1037.5"
   height="1037.5"
   width="1037.5"
   xml:space="preserve"
   version="1.1"
   id="svg2"><metadata
     id="metadata8"><rdf:RDF><cc:Work
         rdf:about=""><dc:format>image/svg+xml</dc:format><dc:type
           rdf:resource="http://purl.org/dc/dcmitype/StillImage" /></cc:Work></rdf:RDF></metadata><defs
     id="defs6"><clipPath
       id="clipPath16"
       clipPathUnits="userSpaceOnUse"><path
         id="path18"
         d="M 0,830 830,830 830,0 0,0 0,830 Z" /></clipPath></defs><g
     transform="matrix(1.25,0,0,-1.25,0,1037.5)"
     id="g10"><g
       id="g12"><g
         clip-path="url(#clipPath16)"
         id="g14"><g
           transform="translate(578.0972,507.6925)"
           id="g20"><path
             id="path22"
             style="fill:#f4982a;fill-opacity:1;fill-rule:nonzero;stroke:none"
             d="m 0,0 154.492,-94.374 c 0.014,0.807 0.052,1.268 0.052,2.075 0,115.367 -62.051,215.946 -154.474,270.972 L 0,0 Z" /></g><g
           transform="translate(335.8187,718.8242)"
           id="g24"><path
             id="path26"
             style="fill:#77b1a1;fill-opacity:1;fill-rule:nonzero;stroke:none"
             d="M 0,0 0,-165.51 242.349,-32.459 C 195.448,-4.828 140.979,11.297 82.615,11.297 53.982,11.297 26.379,7.151 0,0" /></g><g
           transform="translate(257.0074,144.0144)"
           id="g28"><path
             id="path30"
             style="fill:#ffe6c0;fill-opacity:1;fill-rule:nonzero;stroke:none"
             d="m 0,0 c 47.053,-27.896 101.549,-44.136 160.22,-44.136 59.185,0 113.8,16.198 161.132,44.553 L 161.124,85.284 0,0 Z" /></g><g
           transform="translate(578.2665,144.4318)"
           id="g32"><path
             id="path34"
             style="fill:#f7bb38;fill-opacity:1;fill-rule:nonzero;stroke:none"
             d="M 0,0 -0.169,177.661 -160.135,84.866 0,0 Z" /></g><g
           transform="translate(732.589,413.3183)"
           id="g36"><path
             id="path38"
             style="fill:#e22d32;fill-opacity:1;fill-rule:nonzero;stroke:none"
             d="M 0,0 C -0.707,-114.617 -62.499,-214.302 -154.323,-268.887 L -154.492,-91.226 0,0 Z" /></g><g
           transform="translate(732.589,413.3183)"
           id="g40"><path
             id="path42"
             style="fill:#922735;fill-opacity:1;fill-rule:nonzero;stroke:none"
             d="m 0,0 -154.492,94.378 0,-185.604 L 0,0 Z" /></g><g
           transform="translate(419.5036,599.2622)"
           id="g44"><path
             id="path46"
             style="fill:#9ed1ba;fill-opacity:1;fill-rule:nonzero;stroke:none"
             d="M 0,0 158.594,-91.566 158.664,87.103 0,0 Z" /></g><g
           transform="translate(418.1316,229.298)"
           id="g48"><path
             id="path50"
             style="fill:#ed6f3a;fill-opacity:1;fill-rule:nonzero;stroke:none"
             d="M 0,0 -161.031,92.557 -161.124,-85.284 0,0 Z" /></g><g
           transform="translate(102.3634,411.1776)"
           id="g52"><path
             id="path54"
             style="fill:#f7bb38;fill-opacity:1;fill-rule:nonzero;stroke:none"
             d="m 0,0 154.737,94.784 0,178.95 C 62.091,218.763 -0.056,120.373 -0.056,4.825 -0.056,4.004 0,0 0,0" /></g><g
           transform="translate(102.3634,411.1776)"
           id="g56"><path
             id="path58"
             style="fill:#ea5651;fill-opacity:1;fill-rule:nonzero;stroke:none"
             d="M 0,0 C 1.419,-113.865 63.083,-212.819 154.644,-267.163 L 154.739,-89.322 0,0 Z" /></g><g
           transform="translate(257.1,505.9614)"
           id="g60"><path
             id="path62"
             style="fill:#f4982a;fill-opacity:1;fill-rule:nonzero;stroke:none"
             d="M 0,0 0,-184.106 -154.737,-94.784 0,0 Z" /></g></g></g></g></svg>