<?xml version="1.0" encoding="UTF-8" standalone="no"?>
<svg
   xmlns:dc="http://purl.org/dc/elements/1.1/"
   xmlns:cc="http://creativecommons.org/ns#"
   xmlns:rdf="http://www.w3.org/1999/02/22-rdf-syntax-ns#"
   xmlns:svg="http://www.w3.org/2000/svg"
   xmlns="http://www.w3.org/2000/svg"
   viewBox="0 0 3250 1037.5"
   height="1037.5"
   width="3250"
   xml:space="preserve"
   version="1.1"
   id="svg2"><metadata
     id="metadata8"><rdf:RDF><cc:Work
         rdf:about=""><dc:format>image/svg+xml</dc:format><dc:type
           rdf:resource="http://purl.org/dc/dcmitype/StillImage" /></cc:Work></rdf:RDF></metadata><defs
     id="defs6"><clipPath
       id="clipPath16"
       clipPathUnits="userSpaceOnUse"><path
         id="path18"
         d="M 0,830 2600,830 2600,0 0,0 0,830 Z" /></clipPath></defs><g
     transform="matrix(1.25,0,0,-1.25,0,1037.5)"
     id="g10"><g
       id="g12"><g
         clip-path="url(#clipPath16)"
         id="g14"><g
           transform="translate(1121.0969,283.7759)"
           id="g20"><path
             id="path22"
             style="fill:#2c2c2b;fill-opacity:1;fill-rule:nonzero;stroke:none"
             d="m 0,0 c 31.644,21.709 47.479,54.266 47.479,97.684 0,25.572 -6.086,46.659 -18.27,63.301 -12.17,16.643 -31.035,29.224 -56.593,37.743 17.039,8.52 30.321,19.87 39.859,34.079 9.538,14.208 14.3,31.247 14.3,51.13 0,21.511 -4.458,39.569 -13.387,54.174 -8.93,14.605 -21.405,26.365 -37.425,35.295 -16.034,8.93 -35.004,15.319 -56.911,19.182 -21.907,3.85 -45.653,5.781 -71.212,5.781 -9.339,0 -19.182,-0.211 -29.527,-0.608 -10.345,-0.41 -20.795,-1.019 -31.339,-1.826 -10.557,-0.82 -20.902,-1.931 -31.048,-3.347 -10.147,-1.429 -19.685,-2.95 -28.601,-4.564 l 0,-409.627 c 17.039,-4.472 36.922,-7.409 59.649,-8.824 22.714,-1.429 45.243,-2.13 67.56,-2.13 C -80.141,-32.557 -31.644,-21.709 0,0 m -129.644,162.203 c 30.837,0 54.98,-4.67 72.429,-13.997 17.449,-9.34 26.18,-25.969 26.18,-49.913 0,-13.388 -2.95,-24.342 -8.837,-32.862 -5.887,-8.519 -13.798,-15.319 -23.733,-20.386 -9.948,-5.08 -21.709,-8.625 -35.295,-10.649 -13.599,-2.038 -28.31,-3.056 -44.132,-3.056 -8.122,0 -17.039,0.211 -26.775,0.608 -9.75,0.41 -18.878,1.019 -27.397,1.826 l 0,128.429 67.56,0 z m -67.56,171.039 c 6.482,0.807 14.3,1.416 23.428,1.826 9.142,0.397 19.579,0.608 31.353,0.608 27.582,0 50.005,-4.259 67.256,-12.779 17.237,-8.52 25.863,-22.939 25.863,-43.22 0,-21.51 -8.321,-36.419 -24.95,-44.741 -16.642,-8.321 -39.568,-12.475 -68.778,-12.475 l -54.172,0 0,110.781 z m 597.697,-360.931 0,65.127 -208.766,0 0,123.547 172.85,0 0,63.91 -172.85,0 0,104.087 194.162,0 0,65.127 -270.85,0 0,-421.798 285.454,0 z m 429.082,0 c -16.616,30.374 -37.068,63.977 -61.37,100.754 -24.288,36.79 -52.227,75.776 -83.778,116.972 l 136.628,204.072 -87.642,0 -92.708,-138.469 -92.325,138.469 -91.293,0 138.216,-206.268 C 566.689,148.947 540.152,111.733 515.691,76.2 491.218,40.666 469.654,6.032 451.002,-27.689 l 87.655,0 c 4.868,9.459 11.337,20.717 19.393,33.761 8.07,13.057 16.854,26.578 26.326,40.561 9.485,13.97 18.97,27.675 28.442,41.103 9.485,13.427 18.269,24.976 26.339,34.687 C 658.67,97.671 677.362,72.006 695.235,45.389 713.12,18.785 727.95,-5.583 739.75,-27.689 l 89.825,0 z m 84.003,0 76.688,0 0,421.798 -76.688,0 0,-421.798 z m 236.759,66.345 c -18.679,6.085 -33.482,12.17 -44.436,18.256 l -22.516,-62.693 c 4.869,-2.844 11.351,-5.993 19.473,-9.433 8.11,-3.452 17.74,-6.799 28.906,-10.04 11.165,-3.255 23.944,-5.993 38.351,-8.229 14.393,-2.222 30.32,-3.347 47.783,-3.347 51.923,0 91.385,10.451 118.372,31.353 26.987,20.889 40.481,50.416 40.481,88.556 0,19.883 -2.844,36.83 -8.52,50.826 -5.688,13.997 -13.903,26.168 -24.658,36.513 -10.755,10.358 -23.945,19.275 -39.555,26.789 -15.623,7.501 -33.377,14.909 -53.26,22.212 -11.363,4.048 -21.814,8.321 -31.339,12.779 -9.538,4.471 -17.859,9.34 -24.963,14.618 -7.104,5.265 -12.581,11.258 -16.431,17.952 -3.862,6.694 -5.781,14.698 -5.781,24.037 0,15.426 5.781,27.398 17.343,35.918 11.563,8.519 27.702,12.779 48.392,12.779 17.436,0 34.382,-2.037 50.826,-6.085 16.43,-4.062 31.538,-9.949 45.335,-17.648 l 23.746,62.071 c -11.773,6.906 -27.913,13.295 -48.391,19.182 -20.492,5.874 -43.933,8.824 -70.299,8.824 -45.455,0 -81.358,-10.861 -107.737,-32.57 -26.378,-21.709 -39.554,-51.633 -39.554,-89.773 0,-18.256 3.135,-33.88 9.432,-46.871 6.284,-12.991 14.605,-24.143 24.95,-33.47 10.345,-9.339 22.317,-17.145 35.917,-23.428 13.586,-6.298 27.688,-12.079 42.293,-17.357 14.618,-4.868 27.595,-9.843 38.959,-14.909 11.35,-5.08 20.994,-10.557 28.905,-16.431 7.924,-5.887 14.01,-12.475 18.269,-19.778 4.26,-7.315 6.39,-16.033 6.39,-26.18 0,-17.039 -6.297,-30.229 -18.878,-39.555 -12.58,-9.34 -32.662,-14.01 -60.244,-14.01 -26.392,0 -48.908,3.043 -67.561,9.142" /></g><g
           transform="translate(889.639,182.9883)"
           id="g24"><path
             id="path26"
             style="fill:#5d5d5c;fill-opacity:1;fill-rule:nonzero;stroke:none"
             d="m 0,0 c -5.12,3.81 -12.713,5.715 -22.807,5.715 -2.897,0 -6.045,-0.159 -9.472,-0.476 -3.426,-0.318 -6.403,-0.834 -8.942,-1.535 l 0,-71.966 7.196,0 0,29.633 11.853,0 c 2.262,0 4.511,0.106 6.774,0.317 1.269,-1.693 2.751,-3.664 4.444,-5.926 1.694,-2.262 3.44,-4.71 5.239,-7.356 1.799,-2.646 3.559,-5.384 5.292,-8.202 1.733,-2.818 3.333,-5.649 4.815,-8.466 l 7.726,0 c -1.27,2.817 -2.818,5.781 -4.657,8.89 -1.839,3.108 -3.704,6.085 -5.609,8.942 -1.905,2.858 -3.757,5.491 -5.556,7.885 -1.799,2.395 -3.268,4.3 -4.392,5.715 4.723,1.416 8.533,3.704 11.43,6.879 2.897,3.175 4.339,7.514 4.339,13.018 C 7.673,-9.459 5.12,-3.81 0,0 m -13.758,-1.217 c 2.646,-0.463 4.987,-1.31 7.038,-2.54 2.05,-1.23 3.704,-2.91 4.974,-5.027 1.27,-2.117 1.905,-4.802 1.905,-8.043 0,-3.533 -0.635,-6.311 -1.905,-8.361 -1.27,-2.051 -3.003,-3.612 -5.186,-4.71 -2.183,-1.098 -4.762,-1.799 -7.726,-2.117 -2.963,-0.317 -6.098,-0.476 -9.419,-0.476 l -9.948,0 0,31.221 c 1.336,0.146 3.016,0.304 5.027,0.476 2.011,0.172 4.352,0.265 7.038,0.265 2.818,0 5.556,-0.225 8.202,-0.688 m 88.316,-67.045 0,6.244 -37.887,0 0,29.21 31.326,0 0,6.138 -31.326,0 0,25.506 35.136,0 0,6.244 -42.333,0 0,-73.342 45.084,0 z m 27.94,5.185 c -2.051,0.358 -3.876,0.794 -5.503,1.323 -1.627,0.53 -3.03,1.072 -4.234,1.641 -1.203,0.569 -2.156,1.058 -2.857,1.481 l -2.328,-6.244 c 0.701,-0.423 1.693,-0.913 2.963,-1.481 1.27,-0.569 2.818,-1.112 4.657,-1.641 1.838,-0.529 3.915,-0.966 6.244,-1.323 2.328,-0.357 4.908,-0.529 7.725,-0.529 7.898,0 14.169,1.654 18.785,4.974 4.617,3.321 6.932,8.295 6.932,14.923 0,3.386 -0.568,6.244 -1.693,8.572 -1.124,2.329 -2.646,4.3 -4.551,5.927 -1.905,1.627 -4.14,3.029 -6.72,4.233 -2.58,1.204 -5.305,2.395 -8.202,3.599 -2.394,0.992 -4.617,1.944 -6.667,2.857 -2.051,0.913 -3.824,1.945 -5.345,3.069 -1.521,1.125 -2.699,2.474 -3.545,4.022 -0.847,1.548 -1.27,3.453 -1.27,5.715 0,2.183 0.41,4.061 1.217,5.609 0.807,1.548 1.918,2.844 3.334,3.863 1.415,1.019 3.082,1.759 5.027,2.222 1.944,0.463 4.074,0.688 6.402,0.688 3.387,0 6.549,-0.423 9.472,-1.27 2.924,-0.846 5.411,-1.971 7.461,-3.386 l 2.54,6.032 c -0.912,0.635 -2.063,1.23 -3.439,1.799 -1.376,0.569 -2.897,1.072 -4.551,1.535 -1.653,0.463 -3.439,0.833 -5.344,1.111 -1.905,0.278 -3.85,0.423 -5.821,0.423 -7.408,0 -13.189,-1.627 -17.356,-4.868 -4.168,-3.241 -6.245,-8.003 -6.245,-14.287 0,-2.752 0.437,-5.146 1.323,-7.197 0.887,-2.05 2.17,-3.863 3.863,-5.45 1.694,-1.588 3.744,-3.017 6.138,-4.273 2.395,-1.27 5.12,-2.487 8.15,-3.678 2.394,-0.992 4.696,-1.918 6.879,-2.791 2.182,-0.874 4.127,-1.932 5.82,-3.175 1.694,-1.231 3.056,-2.752 4.075,-4.565 1.018,-1.799 1.534,-4.048 1.534,-6.733 0,-4.657 -1.587,-8.043 -4.762,-10.134 -3.175,-2.077 -7.62,-3.122 -13.335,-3.122 -2.474,0 -4.723,0.172 -6.773,0.529 m 96.095,-5.185 0,6.244 -37.888,0 0,29.21 31.327,0 0,6.138 -31.327,0 0,25.506 35.136,0 0,6.244 -42.332,0 0,-73.342 45.084,0 z m 78.104,0 c -2.95,7.633 -5.649,14.737 -8.109,21.338 -2.448,6.602 -4.869,12.846 -7.263,18.733 -2.395,5.873 -4.749,11.535 -7.065,16.973 -2.328,5.437 -4.775,10.861 -7.368,16.298 l -6.337,0 c -2.592,-5.45 -5.066,-10.901 -7.408,-16.325 -2.355,-5.424 -4.723,-11.073 -7.104,-16.96 -2.381,-5.887 -4.802,-12.117 -7.289,-18.719 -2.474,-6.588 -5.106,-13.705 -7.884,-21.338 l 7.514,0 c 1.309,3.585 2.54,7.038 3.717,10.371 1.164,3.321 2.368,6.562 3.598,9.737 l 35.824,0 c 1.072,-3.149 2.196,-6.39 3.374,-9.71 1.177,-3.334 2.46,-6.8 3.862,-10.398 l 7.938,0 z m -25.347,46.566 c 2.553,-6.284 5.199,-13.057 7.911,-20.32 l -31.313,0 c 2.699,7.263 5.292,14.023 7.818,20.294 2.514,6.27 5.094,12.448 7.753,18.547 2.645,-6.072 5.265,-12.237 7.831,-18.521 M 333.687,0 c -5.119,3.81 -12.726,5.715 -22.807,5.715 -2.897,0 -6.058,-0.159 -9.471,-0.476 -3.427,-0.318 -6.403,-0.834 -8.943,-1.535 l 0,-71.966 7.196,0 0,29.633 11.854,0 c 2.248,0 4.511,0.106 6.773,0.317 1.27,-1.693 2.751,-3.664 4.445,-5.926 1.693,-2.262 3.439,-4.71 5.238,-7.356 1.799,-2.646 3.559,-5.384 5.292,-8.202 1.72,-2.818 3.334,-5.649 4.815,-8.466 l 7.726,0 c -1.27,2.817 -2.831,5.781 -4.657,8.89 -1.839,3.108 -3.704,6.085 -5.609,8.942 -1.905,2.858 -3.757,5.491 -5.556,7.885 -1.799,2.395 -3.267,4.3 -4.392,5.715 4.723,1.416 8.533,3.704 11.43,6.879 2.884,3.175 4.339,7.514 4.339,13.018 0,7.474 -2.566,13.123 -7.673,16.933 m -13.758,-1.217 c 2.646,-0.463 4.987,-1.31 7.038,-2.54 2.037,-1.23 3.704,-2.91 4.974,-5.027 1.27,-2.117 1.905,-4.802 1.905,-8.043 0,-3.533 -0.635,-6.311 -1.905,-8.361 -1.27,-2.051 -3.003,-3.612 -5.186,-4.71 -2.196,-1.098 -4.762,-1.799 -7.725,-2.117 -2.964,-0.317 -6.112,-0.476 -9.419,-0.476 l -9.949,0 0,31.221 c 1.337,0.146 3.017,0.304 5.027,0.476 2.011,0.172 4.353,0.265 7.038,0.265 2.818,0 5.556,-0.225 8.202,-0.688 m 81.014,-68.157 c 2.395,0.318 4.511,0.728 6.35,1.217 1.826,0.49 3.347,0.966 4.551,1.429 1.191,0.463 2.037,0.86 2.54,1.217 l -2.011,6.139 c -1.627,-0.913 -4.008,-1.813 -7.144,-2.699 -3.148,-0.887 -7.037,-1.323 -11.694,-1.323 -4.233,0 -7.99,0.741 -11.271,2.222 -3.281,1.482 -6.059,3.599 -8.308,6.35 -2.262,2.752 -3.969,6.086 -5.133,10.002 -1.164,3.915 -1.746,8.308 -1.746,13.176 0,4.723 0.582,9.035 1.746,12.912 1.164,3.876 2.911,7.236 5.239,10.054 2.328,2.817 5.199,5.014 8.625,6.561 3.413,1.548 7.422,2.329 12.012,2.329 4.022,0 7.382,-0.516 10.107,-1.535 2.712,-1.019 4.948,-2.064 6.72,-3.122 l 2.329,6.244 c -0.635,0.423 -1.561,0.9 -2.752,1.429 -1.204,0.529 -2.646,1.058 -4.339,1.587 -1.693,0.53 -3.678,0.966 -5.927,1.323 -2.262,0.357 -4.762,0.529 -7.514,0.529 -4.445,0 -8.718,-0.833 -12.805,-2.487 -4.101,-1.653 -7.7,-4.114 -10.795,-7.355 -3.109,-3.241 -5.596,-7.25 -7.461,-12.012 -1.879,-4.763 -2.805,-10.213 -2.805,-16.351 0,-6.139 0.86,-11.589 2.593,-16.352 1.72,-4.762 4.088,-8.77 7.091,-12.012 2.99,-3.241 6.522,-5.715 10.583,-7.408 4.048,-1.693 8.44,-2.54 13.176,-2.54 2.963,0 5.636,0.159 8.043,0.476 m 78.21,42.598 -39.793,0 0,31.856 -7.196,0 0,-73.342 7.196,0 0,35.242 39.793,0 0,-35.242 7.196,0 0,73.342 -7.196,0 0,-31.856 z m 116.203,11.536 c -1.984,4.657 -4.749,8.533 -8.308,11.642 -3.572,3.109 -7.818,5.437 -12.752,6.985 -4.948,1.547 -10.372,2.328 -16.299,2.328 -2.963,0 -6.072,-0.159 -9.313,-0.476 -3.254,-0.318 -6.111,-0.834 -8.572,-1.535 l 0,-70.696 c 2.461,-0.635 5.318,-1.112 8.572,-1.429 3.241,-0.318 6.35,-0.476 9.313,-0.476 5.927,0 11.351,0.78 16.299,2.328 4.934,1.548 9.18,3.876 12.752,6.985 3.559,3.109 6.324,6.985 8.308,11.642 1.971,4.656 2.963,10.12 2.963,16.404 0,6.204 -0.992,11.641 -2.963,16.298 m -48.048,13.97 c 0.424,0.066 1.495,0.212 3.228,0.423 1.72,0.212 4.498,0.318 8.308,0.318 5.292,0 9.909,-0.728 13.864,-2.17 3.942,-1.442 7.263,-3.505 9.948,-6.191 2.672,-2.686 4.683,-5.927 6.033,-9.737 1.336,-3.81 2.01,-8.109 2.01,-12.911 0,-4.802 -0.674,-9.115 -2.01,-12.965 -1.35,-3.85 -3.361,-7.104 -6.033,-9.789 -2.685,-2.686 -6.006,-4.75 -9.948,-6.192 -3.955,-1.442 -8.572,-2.169 -13.864,-2.169 -3.81,0 -6.588,0.106 -8.308,0.317 -1.733,0.212 -2.804,0.357 -3.228,0.424 l 0,60.642 z m 128.903,-66.992 c -2.95,7.633 -5.648,14.737 -8.109,21.338 -2.447,6.602 -4.868,12.846 -7.263,18.733 -2.394,5.873 -4.749,11.535 -7.064,16.973 -2.328,5.437 -4.775,10.861 -7.368,16.298 l -6.35,0 c -2.58,-5.45 -5.054,-10.901 -7.395,-16.325 -2.355,-5.424 -4.723,-11.073 -7.104,-16.96 -2.381,-5.887 -4.802,-12.117 -7.289,-18.719 -2.474,-6.588 -5.107,-13.705 -7.885,-21.338 l 7.514,0 c 1.31,3.585 2.54,7.038 3.717,10.371 1.165,3.321 2.369,6.562 3.586,9.737 l 35.837,0 c 1.071,-3.149 2.196,-6.39 3.36,-9.71 1.177,-3.334 2.474,-6.8 3.863,-10.398 l 7.95,0 z m -25.359,46.566 c 2.566,-6.284 5.212,-13.057 7.91,-20.32 l -31.299,0 c 2.698,7.263 5.291,14.023 7.805,20.294 2.527,6.27 5.106,12.448 7.765,18.547 2.646,-6.072 5.252,-12.237 7.819,-18.521 m 28.005,26.776 0,-6.244 23.495,0 0,-67.098 7.196,0 0,67.098 23.495,0 0,6.244 -54.186,0 z m 122.765,-73.342 c -2.95,7.633 -5.649,14.737 -8.109,21.338 -2.448,6.602 -4.869,12.846 -7.263,18.733 -2.395,5.873 -4.749,11.535 -7.064,16.973 -2.329,5.437 -4.776,10.861 -7.369,16.298 l -6.35,0 c -2.579,-5.45 -5.053,-10.901 -7.395,-16.325 -2.354,-5.424 -4.723,-11.073 -7.104,-16.96 -2.381,-5.887 -4.802,-12.117 -7.289,-18.719 -2.474,-6.588 -5.106,-13.705 -7.884,-21.338 l 7.514,0 c 1.309,3.585 2.54,7.038 3.717,10.371 1.164,3.321 2.368,6.562 3.585,9.737 l 35.837,0 c 1.072,-3.149 2.196,-6.39 3.374,-9.71 1.164,-3.334 2.46,-6.8 3.849,-10.398 l 7.951,0 z m -25.36,46.566 c 2.566,-6.284 5.212,-13.057 7.911,-20.32 l -31.3,0 c 2.699,7.263 5.292,14.023 7.805,20.294 2.527,6.27 5.107,12.448 7.766,18.547 2.645,-6.072 5.252,-12.237 7.818,-18.521 m 110.025,-35.983 c 0.702,1.759 1.707,4.088 3.016,6.985 1.297,2.897 2.765,6.046 4.393,9.472 1.613,3.426 3.28,6.945 4.974,10.583 1.693,3.638 3.307,7.038 4.868,10.213 1.548,3.175 2.924,5.967 4.127,8.361 1.191,2.394 2.077,4.088 2.646,5.08 0.913,-8.824 1.64,-18.402 2.17,-28.734 0.529,-10.332 1.005,-21.18 1.428,-32.543 l 7.303,0 c -0.635,13.335 -1.363,26.101 -2.17,38.311 -0.82,12.211 -1.825,23.879 -3.016,35.031 l -6.032,0 c -2.13,-3.532 -4.392,-7.607 -6.787,-12.224 -2.407,-4.617 -4.802,-9.419 -7.17,-14.393 -2.368,-4.974 -4.657,-9.882 -6.892,-14.711 -2.223,-4.829 -4.181,-9.194 -5.874,-13.07 -1.706,3.876 -3.664,8.241 -5.887,13.07 -2.235,4.829 -4.524,9.737 -6.892,14.711 -2.368,4.974 -4.763,9.776 -7.157,14.393 -2.408,4.617 -4.67,8.692 -6.786,12.224 l -6.35,0 c -1.204,-11.152 -2.209,-22.82 -3.017,-35.031 -0.82,-12.21 -1.534,-24.976 -2.169,-38.311 l 7.091,0 c 0.423,11.363 0.899,22.211 1.428,32.543 0.53,10.332 1.244,19.91 2.17,28.734 0.556,-0.992 1.442,-2.686 2.646,-5.08 1.204,-2.394 2.593,-5.186 4.154,-8.361 1.561,-3.175 3.188,-6.575 4.881,-10.213 1.707,-3.638 3.373,-7.157 5.001,-10.583 1.627,-3.426 3.095,-6.575 4.418,-9.472 1.31,-2.897 2.315,-5.226 3.03,-6.985 l 6.455,0 z m 114.709,-10.583 c -2.937,7.633 -5.649,14.737 -8.096,21.338 -2.448,6.602 -4.882,12.846 -7.263,18.733 -2.395,5.873 -4.749,11.535 -7.065,16.973 -2.328,5.437 -4.788,10.861 -7.368,16.298 l -6.35,0 c -2.58,-5.45 -5.053,-10.901 -7.395,-16.325 -2.355,-5.424 -4.723,-11.073 -7.104,-16.96 -2.381,-5.887 -4.815,-12.117 -7.289,-18.719 -2.474,-6.588 -5.106,-13.705 -7.884,-21.338 l 7.514,0 c 1.296,3.585 2.54,7.038 3.717,10.371 1.164,3.321 2.368,6.562 3.585,9.737 l 35.837,0 c 1.072,-3.149 2.196,-6.39 3.36,-9.71 1.178,-3.334 2.474,-6.8 3.863,-10.398 l 7.938,0 z m -25.347,46.566 c 2.566,-6.284 5.212,-13.057 7.911,-20.32 l -31.3,0 c 2.686,7.263 5.292,14.023 7.805,20.294 2.514,6.27 5.107,12.448 7.766,18.547 2.645,-6.072 5.252,-12.237 7.818,-18.521 m 97.1,-46.566 0,73.342 -7.09,0 0,-59.69 c -2.196,3.876 -5.001,8.414 -8.427,13.639 -3.427,5.213 -7.117,10.557 -11.073,16.021 -3.955,5.463 -7.99,10.834 -12.104,16.1 -4.114,5.265 -7.964,9.908 -11.576,13.93 l -5.714,0 0,-73.342 7.09,0 0,61.78 c 2.011,-2.408 4.313,-5.265 6.906,-8.56 2.593,-3.307 5.252,-6.852 7.95,-10.636 2.712,-3.783 5.437,-7.659 8.163,-11.668 2.738,-3.995 5.357,-7.871 7.871,-11.615 2.513,-3.744 4.802,-7.289 6.852,-10.623 2.051,-3.334 3.771,-6.231 5.12,-8.678 l 6.032,0 z m 81.702,0 c -2.936,7.633 -5.648,14.737 -8.096,21.338 -2.46,6.602 -4.881,12.846 -7.262,18.733 -2.395,5.873 -4.749,11.535 -7.078,16.973 -2.315,5.437 -4.775,10.861 -7.355,16.298 l -6.35,0 c -2.593,-5.45 -5.054,-10.901 -7.408,-16.325 -2.342,-5.424 -4.71,-11.073 -7.091,-16.96 -2.381,-5.887 -4.815,-12.117 -7.289,-18.719 -2.474,-6.588 -5.107,-13.705 -7.898,-21.338 l 7.514,0 c 1.31,3.585 2.553,7.038 3.731,10.371 1.164,3.321 2.368,6.562 3.585,9.737 l 35.837,0 c 1.072,-3.149 2.183,-6.39 3.36,-9.71 1.178,-3.334 2.461,-6.8 3.863,-10.398 l 7.937,0 z m -25.346,46.566 c 2.566,-6.284 5.199,-13.057 7.911,-20.32 l -31.3,0 c 2.686,7.263 5.292,14.023 7.805,20.294 2.514,6.27 5.106,12.448 7.752,18.547 2.659,-6.072 5.265,-12.237 7.832,-18.521 m 85.988,-40.005 c -0.847,-0.357 -2.487,-0.727 -4.921,-1.111 -2.434,-0.384 -5.45,-0.582 -9.049,-0.582 -4.445,0 -8.36,0.741 -11.747,2.222 -3.387,1.482 -6.218,3.612 -8.519,6.403 -2.289,2.792 -3.996,6.139 -5.133,10.054 -1.125,3.916 -1.694,8.308 -1.694,13.177 0,5.225 0.688,9.803 2.064,13.758 1.376,3.956 3.268,7.263 5.662,9.948 2.408,2.686 5.225,4.697 8.467,6.033 3.254,1.336 6.707,2.011 10.371,2.011 3.955,0 7.62,-0.437 11.007,-1.323 3.386,-0.887 6.072,-2.024 8.043,-3.44 l 2.434,6.138 c -1.614,1.059 -4.194,2.17 -7.726,3.334 -3.519,1.164 -8.003,1.746 -13.44,1.746 -4.723,0 -9.168,-0.846 -13.335,-2.54 -4.154,-1.693 -7.805,-4.14 -10.954,-7.355 -3.135,-3.215 -5.622,-7.197 -7.461,-11.959 -1.826,-4.763 -2.751,-10.213 -2.751,-16.351 0,-6.139 0.846,-11.589 2.54,-16.352 1.693,-4.762 4.047,-8.744 7.037,-11.959 3.003,-3.214 6.548,-5.662 10.636,-7.355 4.101,-1.693 8.546,-2.54 13.335,-2.54 5.715,0 10.53,0.437 14.446,1.323 3.916,0.886 6.548,1.601 7.885,2.169 l 0,32.703 -7.197,0 0,-28.152 z m 74.294,-6.561 0,6.244 -37.888,0 0,29.21 31.326,0 0,6.138 -31.326,0 0,25.506 35.136,0 0,6.244 -42.332,0 0,-73.342 45.084,0 z m 58.419,10.583 c 0.714,1.759 1.707,4.088 3.016,6.985 1.31,2.897 2.778,6.046 4.392,9.472 1.627,3.426 3.281,6.945 4.974,10.583 1.694,3.638 3.321,7.038 4.869,10.213 1.561,3.175 2.923,5.967 4.127,8.361 1.204,2.394 2.09,4.088 2.646,5.08 0.926,-8.824 1.64,-18.402 2.169,-28.734 0.529,-10.332 1.006,-21.18 1.429,-32.543 l 7.303,0 c -0.636,13.335 -1.35,26.101 -2.17,38.311 -0.807,12.211 -1.813,23.879 -3.016,35.031 l -6.033,0 c -2.116,-3.532 -4.379,-7.607 -6.786,-12.224 -2.395,-4.617 -4.789,-9.419 -7.157,-14.393 -2.368,-4.974 -4.67,-9.882 -6.892,-14.711 -2.223,-4.829 -4.194,-9.194 -5.887,-13.07 -1.693,3.876 -3.651,8.241 -5.887,13.07 -2.222,4.829 -4.524,9.737 -6.892,14.711 -2.368,4.974 -4.75,9.776 -7.157,14.393 -2.395,4.617 -4.657,8.692 -6.787,12.224 l -6.35,0 c -1.203,-11.152 -2.196,-22.82 -3.016,-35.031 -0.807,-12.21 -1.534,-24.976 -2.169,-38.311 l 7.09,0 c 0.424,11.363 0.9,22.211 1.429,32.543 0.529,10.332 1.257,19.91 2.17,28.734 0.568,-0.992 1.455,-2.686 2.659,-5.08 1.203,-2.394 2.593,-5.186 4.14,-8.361 1.561,-3.175 3.188,-6.575 4.895,-10.213 1.706,-3.638 3.373,-7.157 5.001,-10.583 1.627,-3.426 3.095,-6.575 4.405,-9.472 1.309,-2.897 2.328,-5.226 3.029,-6.985 l 6.456,0 z m 102.445,-10.583 0,6.244 -37.888,0 0,29.21 31.326,0 0,6.138 -31.326,0 0,25.506 35.136,0 0,6.244 -42.332,0 0,-73.342 45.084,0 z m 74.929,0 0,73.342 -7.091,0 0,-59.69 c -2.196,3.876 -5,8.414 -8.427,13.639 -3.426,5.213 -7.117,10.557 -11.072,16.021 -3.956,5.463 -7.991,10.834 -12.105,16.1 -4.114,5.265 -7.977,9.908 -11.575,13.93 l -5.715,0 0,-73.342 7.091,0 0,61.78 c 2.011,-2.408 4.312,-5.265 6.905,-8.56 2.593,-3.307 5.239,-6.852 7.951,-10.636 2.712,-3.783 5.437,-7.659 8.162,-11.668 2.738,-3.995 5.358,-7.871 7.871,-11.615 2.514,-3.744 4.789,-7.289 6.853,-10.623 2.05,-3.334 3.757,-6.231 5.12,-8.678 l 6.032,0 z m 16.721,73.342 0,-6.244 23.495,0 0,-67.098 7.196,0 0,67.098 23.495,0 0,6.244 -54.186,0 z" /></g><g
           transform="translate(578.0972,507.6925)"
           id="g28"><path
             id="path30"
             style="fill:#f4982a;fill-opacity:1;fill-rule:nonzero;stroke:none"
             d="m 0,0 154.492,-94.374 c 0.014,0.807 0.052,1.268 0.052,2.075 0,115.367 -62.051,215.946 -154.474,270.972 L 0,0 Z" /></g><g
           transform="translate(335.8187,718.8242)"
           id="g32"><path
             id="path34"
             style="fill:#77b1a1;fill-opacity:1;fill-rule:nonzero;stroke:none"
             d="M 0,0 0,-165.51 242.349,-32.459 C 195.448,-4.828 140.979,11.297 82.615,11.297 53.982,11.297 26.379,7.151 0,0" /></g><g
           transform="translate(257.0074,144.0144)"
           id="g36"><path
             id="path38"
             style="fill:#ffe6c0;fill-opacity:1;fill-rule:nonzero;stroke:none"
             d="m 0,0 c 47.053,-27.896 101.549,-44.136 160.22,-44.136 59.185,0 113.8,16.198 161.132,44.553 L 161.124,85.284 0,0 Z" /></g><g
           transform="translate(578.0964,144.4318)"
           id="g40"><path
             id="path42"
             style="fill:#f7bb38;fill-opacity:1;fill-rule:nonzero;stroke:none"
             d="M 0,0 0.001,177.661 -159.965,84.866 0,0 Z" /></g><g
           transform="translate(732.589,413.3183)"
           id="g44"><path
             id="path46"
             style="fill:#e22d32;fill-opacity:1;fill-rule:nonzero;stroke:none"
             d="m 0,0 c -0.707,-114.617 -62.669,-214.302 -154.493,-268.887 l 0.001,177.661 L 0,0 Z" /></g><g
           transform="translate(732.589,413.3183)"
           id="g48"><path
             id="path50"
             style="fill:#922735;fill-opacity:1;fill-rule:nonzero;stroke:none"
             d="m 0,0 -154.492,94.378 0,-185.604 L 0,0 Z" /></g><g
           transform="translate(419.5036,599.2622)"
           id="g52"><path
             id="path54"
             style="fill:#9ed1ba;fill-opacity:1;fill-rule:nonzero;stroke:none"
             d="M 0,0 158.594,-91.566 158.664,87.103 0,0 Z" /></g><g
           transform="translate(418.1316,229.298)"
           id="g56"><path
             id="path58"
             style="fill:#ed6f3a;fill-opacity:1;fill-rule:nonzero;stroke:none"
             d="M 0,0 -161.031,92.557 -161.124,-85.284 0,0 Z" /></g><g
           transform="translate(102.3634,411.1776)"
           id="g60"><path
             id="path62"
             style="fill:#f7bb38;fill-opacity:1;fill-rule:nonzero;stroke:none"
             d="m 0,0 154.737,94.784 0,178.95 C 62.091,218.763 -0.056,120.373 -0.056,4.825 -0.056,4.004 0,0 0,0" /></g><g
           transform="translate(102.3634,411.1776)"
           id="g64"><path
             id="path66"
             style="fill:#ea5651;fill-opacity:1;fill-rule:nonzero;stroke:none"
             d="M 0,0 C 1.419,-113.865 63.083,-212.819 154.644,-267.163 L 154.739,-89.322 0,0 Z" /></g><g
           transform="translate(257.1,505.9614)"
           id="g68"><path
             id="path70"
             style="fill:#f4982a;fill-opacity:1;fill-rule:nonzero;stroke:none"
             d="M 0,0 0,-184.106 -154.737,-94.784 0,0 Z" /></g></g></g></g></svg>